<?xml version="1.0" encoding="UTF-8"?> <svg xmlns="http://www.w3.org/2000/svg" id="Layer_2" viewBox="0 0 507 97.88"><defs><style> .cls-1 { fill: #0064ff; } </style></defs><g id="Layer_1-2" data-name="Layer_1"><g id="Group_1407"><g id="Path_1270"><path class="cls-1" d="M90.55,93.96c1.85,0,3.42-1.56,3.42-3.42V7.33c0-1.88-1.53-3.42-3.42-3.42H7.33c-1.88,0-3.42,1.53-3.42,3.42v83.21c0,1.85,1.56,3.42,3.42,3.42h83.21M90.55,97.88H7.33c-4.04,0-7.33-3.31-7.33-7.33V7.33C0,3.3,3.3,0,7.33,0h83.21c4.04,0,7.33,3.3,7.33,7.33v83.21c0,4.03-3.31,7.33-7.33,7.33Z"></path></g><g id="Group_1391"><g id="Group_1385"><path id="Path_1271" class="cls-1" d="M23.44,47.9c-4,0-7.24,3.25-7.24,7.24v19.99c0,4.01,3.25,7.25,7.25,7.25s7.25-3.25,7.25-7.25v-19.97c0-4-3.24-7.25-7.24-7.26h-.02Z"></path></g><g id="Group_1386"><path id="Path_1272" class="cls-1" d="M48.54,39.71c-4,0-7.24,3.25-7.24,7.24v28.18c0,4.01,3.25,7.25,7.25,7.25s7.25-3.25,7.25-7.25v-28.18c-.01-4-3.25-7.23-7.24-7.24h-.02Z"></path></g><g id="Group_1387"><path id="Path_1273" class="cls-1" d="M73.63,31.51c-4,0-7.24,3.25-7.24,7.24v36.39c0,4.01,3.25,7.25,7.25,7.25s7.25-3.25,7.25-7.25h0v-36.38c-.01-4-3.25-7.23-7.24-7.24h-.02Z"></path></g><g id="Group_1388"><path id="Path_1274" class="cls-1" d="M23.44,31.07c-4.01,0-7.26,3.24-7.27,7.25,0,4.01,3.24,7.26,7.25,7.27,4.01,0,7.26-3.24,7.27-7.25,0-1.93-.76-3.78-2.13-5.14-1.36-1.36-3.2-2.12-5.12-2.13Z"></path></g><g id="Group_1389"><path id="Path_1275" class="cls-1" d="M48.54,22.88c-4,0-7.24,3.25-7.23,7.25,0,4,3.25,7.24,7.25,7.23,4,0,7.24-3.25,7.23-7.25,0-1.92-.77-3.76-2.13-5.12-1.37-1.35-3.21-2.11-5.12-2.12Z"></path></g><g id="Group_1390"><path id="Path_1276" class="cls-1" d="M73.63,14.67c-4,0-7.24,3.24-7.24,7.24,0,4,3.24,7.24,7.24,7.24,4,0,7.24-3.24,7.24-7.24,0-1.92-.76-3.77-2.13-5.13-1.36-1.35-3.2-2.11-5.12-2.12Z"></path></g></g><g id="Group_1393"><path id="Path_1281" class="cls-1" d="M139.61,79.06l-2.9-10.12h-14.65l-2.98,10.12h-10.56l15.84-57.36h10.19l15.62,57.36h-10.56ZM129.34,37.7l-4.76,21.2h9.52l-4.76-21.2ZM176.36,48.78c.09-1.4-.53-2.75-1.64-3.61-1.24-.86-2.73-1.29-4.24-1.23-1.64-.1-3.27.33-4.65,1.23-1.12.82-1.75,2.15-1.67,3.53-.08,1.02.27,2.03.97,2.79.7.65,1.58,1.08,2.53,1.23,1.45.25,2.92.42,4.39.52,1.39.1,2.41.2,3.05.3,3.09.3,6.01,1.54,8.37,3.57,2.33,2.15,3.57,5.24,3.38,8.41.23,4.1-1.55,8.06-4.77,10.6-3.53,2.57-7.83,3.87-12.2,3.68-4.39.26-8.72-1.05-12.24-3.68-2.97-2.49-4.6-6.21-4.43-10.08h10.34c0,1.41.62,2.75,1.71,3.64,1.52.92,3.29,1.34,5.06,1.19,1.65.08,3.26-.48,4.5-1.57,1.02-.85,1.63-2.09,1.67-3.42.1-1.34-.73-2.57-2.01-2.98-2.06-.65-4.18-1.07-6.32-1.26l-1.79-.22c-8.38-1.09-12.57-5.16-12.57-12.2-.28-4.11,1.4-8.11,4.54-10.79,3.47-2.57,7.73-3.86,12.05-3.64,5.21,0,9.16,1.29,11.86,3.87,2.73,2.64,4.2,6.32,4.05,10.12h-9.97ZM215.12,48.78c.09-1.4-.53-2.75-1.64-3.61-1.24-.86-2.73-1.3-4.24-1.23-1.64-.1-3.27.33-4.65,1.23-1.12.82-1.75,2.15-1.67,3.53-.08,1.02.27,2.03.97,2.79.7.65,1.58,1.08,2.53,1.23,1.45.25,2.92.42,4.39.52,1.39.1,2.41.2,3.05.3,3.09.3,6.01,1.54,8.37,3.57,2.33,2.15,3.57,5.24,3.38,8.41.23,4.1-1.55,8.06-4.77,10.6-3.53,2.57-7.83,3.87-12.2,3.68-4.39.26-8.72-1.05-12.24-3.68-2.97-2.49-4.6-6.21-4.43-10.08h10.34c0,1.41.62,2.75,1.71,3.64,1.52.92,3.29,1.34,5.06,1.19,1.65.08,3.26-.48,4.5-1.57,1.02-.85,1.63-2.09,1.67-3.42.1-1.34-.73-2.57-2.01-2.98-2.06-.65-4.18-1.07-6.32-1.26l-1.8-.22c-8.38-1.09-12.57-5.16-12.57-12.2-.28-4.11,1.4-8.11,4.54-10.79,3.47-2.57,7.73-3.86,12.05-3.64,5.21,0,9.16,1.29,11.86,3.87,2.73,2.64,4.2,6.32,4.05,10.12h-9.95ZM266.51,66.19c.3,3.89-1.26,7.7-4.2,10.27-2.8,2.23-7.08,3.35-12.83,3.35s-10.09-1.38-12.87-4.13c-2.78-2.75-4.17-7.08-4.17-12.98v-10.79c0-5.55,1.41-9.8,4.24-12.72,2.83-2.93,7.09-4.39,12.79-4.39,5.8,0,10.09,1.38,12.87,4.13,2.78,2.75,4.17,7.08,4.17,12.98v8.93h-23.8v1.71c0,3.27.57,5.49,1.71,6.66,1.42,1.27,3.31,1.9,5.21,1.75,4.57,0,6.85-1.59,6.85-4.76h10.03ZM249.77,43.65c-2.83,0-4.71.69-5.65,2.08-1.08,1.98-1.58,4.22-1.41,6.47h13.92c.18-2.27-.3-4.54-1.37-6.55-1.38-1.54-3.43-2.29-5.48-2.01ZM296.41,48.78c.09-1.4-.53-2.75-1.64-3.61-1.24-.86-2.73-1.3-4.24-1.23-1.64-.1-3.27.33-4.65,1.23-1.12.82-1.75,2.15-1.67,3.54-.08,1.02.27,2.03.97,2.79.7.65,1.58,1.08,2.53,1.23,1.45.25,2.92.42,4.39.52,1.39.1,2.41.2,3.05.3,3.09.3,6.01,1.54,8.37,3.57,2.33,2.15,3.57,5.24,3.38,8.41.23,4.1-1.55,8.05-4.76,10.59-3.53,2.57-7.83,3.87-12.2,3.68-4.39.26-8.72-1.05-12.24-3.68-2.97-2.49-4.6-6.21-4.43-10.08h10.34c0,1.41.62,2.75,1.71,3.64,1.52.92,3.29,1.34,5.06,1.19,1.65.08,3.26-.48,4.5-1.57,1.02-.85,1.63-2.09,1.67-3.42.1-1.34-.73-2.57-2.01-2.98-2.06-.65-4.18-1.07-6.32-1.26l-1.79-.22c-8.38-1.09-12.57-5.16-12.57-12.2-.28-4.11,1.4-8.11,4.54-10.79,3.47-2.57,7.73-3.86,12.05-3.64,5.21,0,9.16,1.29,11.86,3.87,2.73,2.64,4.2,6.32,4.05,10.12h-9.97ZM335.17,48.78c.09-1.4-.53-2.75-1.64-3.61-1.24-.86-2.73-1.3-4.24-1.23-1.64-.1-3.27.33-4.65,1.23-1.12.82-1.75,2.15-1.67,3.54-.08,1.02.27,2.03.97,2.79.7.65,1.58,1.08,2.53,1.23,1.45.25,2.92.42,4.39.52,1.39.1,2.41.2,3.05.3,3.09.3,6.01,1.54,8.37,3.57,2.33,2.15,3.57,5.24,3.38,8.41.23,4.1-1.55,8.05-4.77,10.59-3.53,2.57-7.83,3.87-12.2,3.68-4.39.26-8.72-1.05-12.24-3.68-2.97-2.49-4.6-6.21-4.43-10.08h10.34c0,1.41.62,2.75,1.71,3.64,1.52.92,3.29,1.34,5.06,1.19,1.65.08,3.26-.48,4.5-1.57,1.02-.85,1.63-2.09,1.67-3.42.1-1.34-.73-2.57-2.01-2.98-2.06-.65-4.18-1.07-6.32-1.26l-1.79-.22c-8.38-1.09-12.57-5.16-12.57-12.2-.28-4.11,1.4-8.11,4.54-10.79,3.47-2.57,7.73-3.86,12.05-3.64,5.21,0,9.16,1.29,11.86,3.87,2.73,2.64,4.2,6.32,4.05,10.12h-9.97Z"></path></g><path id="Path_1277" class="cls-1" d="M452.32,81.01l-2.66-10.48h-13.43l-2.73,10.48h-9.68l14.52-59.41h9.34l14.32,59.41h-9.69ZM442.91,38.17l-4.36,21.96h8.73l-4.37-21.96Z"></path><path id="Path_1278" class="cls-1" d="M475.72,43.1l1.09,16.95v20.96h-9.41V21.6h9.07l10.7,26.35,10.77-26.35h9.07v59.41h-9.41v-20.96l1.09-16.95-10.43,23.88h-2.12l-10.42-23.87Z"></path><path id="Path_1279" class="cls-1" d="M372.98,80.85h-9V30.54h-12.39v-9.2h33.79v9.2h-12.39v50.31h0Z"></path><path id="Path_1280" class="cls-1" d="M420.76,80.85h-30.27V21.35h29.97v8.85h-21.57v16.13h17.34v8.62h-17.34v16.65h21.88v9.25Z"></path></g></g></svg> 